# xmcd
#
# Track frame offsets:
#	150
#	11867
#	24445
#	33337
#	44830
#	54115
#	71430
#	79885
#	93305
#	104827
#	114110
#	122487
#	134810
#	142972
#	153955
#	166535
#	175402
#	185480
#	196112
#	205960
#
# Disc length: 2897 seconds
#
# Revision: 0
# Processed by: cddbd v1.4PL0 Copyright (c) Steve Scherf et al.
# Submitted via: MusicWizard 6.0.0
#
DISCID=0e0b4f14
DTITLE=Johnny Cash - Locomotion Man
DYEAR=1994
DGENRE=Country
TTITLE0=Ring Of Fire
TTITLE1=Remember The Alamo
TTITLE2=One More Ride
TTITLE3=I Still Miss Someone
TTITLE4=I Got Stripes
TTITLE5=Troublesome Waters
TTITLE6=Drink To Me
TTITLE7=Tennessee Fla-Top Box
TTITLE8=I Walk The Line
TTITLE9=All Over Again
TTITLE10=The Rebel Johnny Yuma
TTITLE11=The Matador
TTITLE12=You Dreamer You
TTITLE13=Dark As A Dungeon
TTITLE14=Locomotion Man
TTITLE15=Pickin' Time
TTITLE16=The Troubadour
TTITLE17=Run Softly, Blue River
TTITLE18=Girl In Saskatoon
TTITLE19=Little Drummer Boy
EXTD=(c)1994 Back Biter Germany\nAll songs Columbia
EXTT0=
EXTT1=
EXTT2=
EXTT3=
EXTT4=
EXTT5=
EXTT6=
EXTT7=
EXTT8=
EXTT9=
EXTT10=
EXTT11=
EXTT12=
EXTT13=
EXTT14=
EXTT15=
EXTT16=
EXTT17=
EXTT18=
EXTT19=
PLAYORDER=
